<svg xmlns="http://www.w3.org/2000/svg" width="351" height="78" stroke="#000" stroke-linecap="round" stroke-linejoin="round" fill="#fff" fill-rule="evenodd"><defs><clipPath id="A"><path d="M0 0h92v60.6147H0zm0 0" stroke="none" stroke-linejoin="miter" stroke-linecap="butt" fill="none" stroke-width="1.3333" transform="translate(.0213)"/></clipPath></defs><g stroke="none"><path d="M122.592.4387c-10.484 0-17.4946 5.1307-17.4946 13.084 0 18.14 28.4786 11.0574 28.4066 24.36 0 4.8387-4.552 7.8027-11.8546 7.8027-5.708 0-12.14-2.5987-16.8387-7.1507l-2.604 5.2c4.7707 4.552 12 7.7347 19.3693 7.7347 10.844 0 18.2867-5.4214 18.2867-13.88.0733-18.36-28.4067-11.5627-28.4067-24.5734 0-4.2653 4.2654-6.724 10.7707-6.724 4.9615.0697 9.8009 1.549 13.9533 4.2654l2.4534-5.4213c-4.188-2.8174-10.188-4.6974-16.0414-4.6974zm51.956 50.812h5.4947L179.9694 26.1c-.0734-8.172-5.276-13.156-14.672-13.156-6.5054 0-10.6254 1.88-15.5414 5.1307l2.3854 4.12c3.9786-2.7454 7.88-4.3387 12.0733-4.3387 6.724 0 10.1933 3.328 10.1933 8.8907v2.2453h-12.5053c-8.964.0733-14.24 4.26-14.24 10.912 0 6.5787 5.0573 11.64 12.9373 11.64 6.0734 0 10.9174-2.0267 13.948-6.1453zm-12.864-4.6254c-5.3493 0-8.7453-2.7493-8.7453-6.9373s3.3227-6.1453 9.688-6.1453h11.8547v4.552c-1.448 5.276-6.364 8.5306-12.7974 8.5306zm51.5974-33.6813c-6.6454 0-11.8547 3.1093-14.672 8.4533v-8.24h-5.6347V65.272h5.636V43.084c2.8173 5.276 8.0253 8.3853 14.8173 8.3853 10.7707 0 18.14-7.88 18.14-19.156 0-11.4213-7.516-19.3693-18.2866-19.3693zm-1.0107 33.3907c-8.0213 0-13.6613-5.8547-13.6613-14.1667 0-8.24 5.64-14.1667 13.6613-14.1667 7.9533 0 13.588 6 13.588 14.1667 0 8.24-5.636 14.1667-13.588 14.1667zm62.2279-33.1774h-5.64v18.724c0 8.0933-4.6253 13.8026-12.5053 13.948-6.5787 0-10.552-3.9733-10.552-10.6973V13.1586h-5.636v23.4947c0 9.176 5.3493 14.816 14.2387 14.816 6.864-.0734 11.9213-2.8907 14.4533-8.8173v8.5986h5.64zm19.3601.0001h-5.64v38.0933h5.64v-20.24c.6506-7.516 5.636-12.5053 13.6613-12.36v-5.708c-6.432.0733-11.1306 3.1093-13.6613 8.672zm36.2786-.1414c-11.0573 0-18.864 7.8747-18.864 19.224s7.7333 19.2293 18.936 19.2293c6.36 0 11.708-2.3119 15.3227-6.3639l-3.1093-3.3227c-2.9641 3.1093-7.0827 4.7707-11.7814 4.7707-7.3693 0-12.792-4.6974-13.8067-12.1454h31.0841c.5786-12.9373-5.4947-21.464-17.7814-21.3907zm-13.3027 16.7654c.8694-7.224 6.0734-11.9267 13.3027-11.9267 7.4427 0 12.36 4.6307 12.7187 11.9267zm-19.2173 42.0693v3.052c-.7835.5361-1.7067.8313-2.656.8493-2.3119 0-4.1773-1.776-4.1773-4.016 0-2.224 1.8493-4.0053 4.1613-4.0053a4.666 4.666 0 0 1 3.0627 1.172l.6667-.864c-.9693-.8547-2.328-1.3907-3.7294-1.3907-2.9786 0-5.3333 2.24-5.3333 5.088s2.3387 5.1147 5.276 5.1147c1.3547 0 2.76-.536 3.7547-1.328v-3.672zm18.4721-2.7134c-1.4587.0107-2.5267.6453-3.0054 1.9893-.3173-1.2546-1.2973-1.9893-2.7293-1.9893-1.3747.0107-2.4013.5787-2.9067 1.76v-1.7186h-1.1093v7.6146h1.1093V73.048c0-1.6307.9427-2.7547 2.5-2.8027 1.328 0 2.1094.7973 2.1094 2.156v4.392h1.14V73.048c0-1.6307.912-2.7547 2.4893-2.8027 1.312 0 2.1093.7973 2.1093 2.156v4.392h1.1254V72.096c0-1.8334-1.052-2.9587-2.8334-2.9587zm14.512.0001c-1.328 0-2.3694.6199-2.932 1.688v-4.7547h-1.1307v10.7227h1.1307v-1.636c.5626 1.0573 1.604 1.6773 2.9626 1.6773 2.1507 0 3.6254-1.5734 3.6254-3.828 0-2.2813-1.5054-3.8693-3.656-3.8693zm-.2027 6.6719c-1.604 0-2.7293-1.1666-2.7293-2.828 0-1.6506 1.1253-2.8333 2.7293-2.8333 1.588 0 2.7187 1.1974 2.7187 2.8333 0 1.6454-1.1307 2.828-2.7187 2.828zm19.4599.9841V66.6787h-1.1559v4.568h-6.0987v-4.568h-1.156v10.1147h1.156V72.34h6.0987v4.4534zm0 0" fill="#818181" fill-rule="nonzero"/><path d="M46.1973 0H0v52.2453l12.292 7.552V14.896h66.7547v45.1093l13.5626-8.3906V0zm0 0" fill="#d9d9d9" fill-rule="nonzero" transform="translate(-.5213 -.5)" clip-path="url(#A)"/><path d="M45.468 11.4586H11.7707v47.8387l27.552 16.7866V52.1626c-3.8173-2.0987-6.36-6.292-6.36-10.912 0-6.9213 5.7187-12.588 12.7133-12.588s12.7187 5.6667 12.7187 12.588c0 4.62-2.5467 8.812-6.36 10.912v24.3387L79.16 59.2986V11.4599zm0 0" fill="#818181" fill-rule="nonzero"/></g></svg>